#!OML:ASF F:\VICON\USERDATA\INSTALL\rory3\rory3.ASF
:FULLY-SPECIFIED
:DEGREES
19
root -0.6419760317479691 17.68320093248506 -13.63869065038759 -1.443402326311638 6.873764402984101 -3.8860754810843834
lfemur -23.751495920870408 -3.5018230004608584 -21.614798867659587
ltibia 40.959604633339474
lfoot -11.770491996728364 -10.71139388743888
ltoes -1.5494390239154843
rfemur -7.6380753301989905 -2.109073517608749 27.04960375529271
rtibia 96.09898865247399
rfoot 21.073189087599005 -13.16358962457693
rtoes 16.75529106259753
lowerback 16.497294635484977 1.0708685913804965 2.7687665359482985
upperback -0.08104018777185096 2.0672180383900507 1.1520152444739202
thorax -9.314926447008249 0.8915203793086182 -0.8248265632379427
lowerneck -18.957109094300737 -5.346237068944437 -1.6914257463877636
upperneck 15.2428908125415 -7.620285747627456 4.051617609656949
head 8.059281610746092 -3.300166925302631 0.6760169325131471
lclavicle -1.7288339579140553e-15 1.783627740629379e-15
lhumerus -61.08469310126232 -12.545202548319788 100.14099148708108
lradius 104.07300444904128
lwrist 33.45060031305122
lhand -25.856195481089546 0.7974909758354536
lfingers 7.12502
lthumb 0.684611519400963 30.77610395177544
rclavicle -1.7288339579140553e-15 1.783627740629379e-15
rhumerus -48.45430221697046 14.403489815674888 -101.75298744529049
rradius 104.67300786406638
rwrist -7.877918230301855
rhand -19.721584468400557 40.739094005457744
rfingers 7.12502
rthumb 6.608565532168662 10.86219468936517
20
root -0.6466339103870664 17.47490431414389 -12.685891039268492 -1.142003884183656 6.63226503288362 -2.5196102223006083
lfemur -22.37229655418441 -3.797762318587235 -23.29889628152626
ltibia 45.081003001255546
lfoot -17.15248826865023 -7.689818902664648
ltoes 2.0965073225176187
rfemur -13.30770288516755 -3.7861098897905276 23.90240920158558
rtibia 102.40698647708163
rfoot 20.9978891398462 -9.95280439973143
rtoes 15.041692191438207
lowerback 16.84359273138025 1.0303288417645033 0.9001372992779871
upperback 0.15045853836227496 1.6215396971318086 0.8064198388995274
thorax -9.309296525011272 0.7562996184504949 -0.03689989538283012
lowerneck -19.70270474383185 -5.254087752484087 -1.3674711134684912
upperneck 15.087891778435758 -7.553946082323309 3.969378362841346
head 8.117170200135464 -3.248607496699133 0.5904370412084002
lclavicle -1.7288340642170575e-15 1.7836277577894746e-15
lhumerus -56.90879589786926 -14.232599849969652 100.17699136519632
lradius 104.53000395767764
lwrist 34.90129571553891
lhand -24.961000402569145 0.056295737182686656
lfingers 7.12502
lthumb 1.5492695971520145 30.030406436413436
rclavicle -1.7288340642170575e-15 1.7836277577894746e-15
rhumerus -49.23730147087694 13.324791676259078 -101.86498716016362
rradius 101.65501299726837
rwrist -6.520573173385253
rhand -22.246571700123983 37.443715014804695
rfingers 7.12502
rthumb 4.170698307340958 7.504846518230566
21
root -0.5274450444631601 17.199459614853104 -5.113029961889925 0.6301203977444194 4.718907028516887 -0.5549643681571195
lfemur -22.104363567180453 0.7272229338883347 -25.99089107567908
ltibia 53.43016365029793
lfoot -19.00204990921461 -2.232111214117422
ltoes 0.4406140919308381
rfemur -20.204188724221726 -4.791932358162633 22.198499828339003
rtibia 112.0149196677674
rfoot 15.074376807819325 -8.25490172327888
rtoes 20.575495058447817
lowerback 17.255467422125157 1.5066719941786255 -1.652583427226041
upperback -0.2304173157290368 1.72059602385269 -0.09490188127967603
thorax -10.238840142000475 0.8917173399211393 0.7330831863473011
lowerneck -20.503472280143825 -5.130349211741012 -1.5883894235146705
upperneck 13.833357473259099 -7.277808866903082 3.932773806405563
head 7.804771940013511 -3.1553655388624655 0.8468735637348438
lclavicle -2.8223476364943028e-15 9.905314710834303e-16
lhumerus -52.70523125254933 -18.628451485351864 100.73826511607791
lradius 105.54538880265876
lwrist 32.10615955332146
lhand -25.706231823522497 3.949218987346595
lfingers 7.12502
lthumb 0.8295077926071042 33.91238429631334
rclavicle -2.8223476364943028e-15 9.905314710834303e-16
rhumerus -49.19657265843313 7.734706221650634 -100.51475472234807
rradius 100.36824904346358
rwrist -7.156195364396011
rhand -18.635691220011793 38.47833176712476
rfingers 7.12502
rthumb 7.656379020081245 8.302447374615664
22
root -0.5037459011345968 17.03703614995672 -7.742625925843333 1.3703370851005903 3.9986547090426336 0.34358419216085956
lfemur -18.847736082553624 0.5185156164189391 -26.884547073131674
ltibia 52.7032096656575
lfoot -22.298051252519524 0.6433018371235573
ltoes -0.8710406303115139
rfemur -28.22179165216277 -5.491141794318942 20.511957577381764
rtibia 117.42738617319262
rfoot 10.96326938700997 -7.6423427211806825
rtoes 18.923982761696845
lowerback 17.607432656184884 1.4592276892993903 -2.9626509868720436
upperback -0.12112869532150328 1.4137868424913367 -0.34635438070835356
thorax -10.42161723837578 0.8020371339179635 1.357414555333628
lowerneck -21.344031022278354 -4.86583131553748 -1.6095962926620397
upperneck 13.043872722568791 -6.917244280477483 4.1269331677333785
head 7.681165583816017 -2.953914251861663 0.9474860326282649
lclavicle -3.0253100694434735e-15 8.433121069524299e-16
lhumerus -47.88335164986751 -20.930029445516297 100.73017257628157
lradius 105.69384107973637
lwrist 31.69160406125646
lhand -25.38286631031052 3.7181310997506634
lfingers 7.12502
lthumb 1.1418153160953088 33.676745644994234
rclavicle -3.0253100694434735e-15 8.433121069524299e-16
rhumerus -50.57837399900888 5.9350289798664715 -100.91783794557314
rradius 99.1964721035559
rwrist -7.979200163697023
rhand -17.976331097967954 38.628981873058144
rfingers 7.12502
rthumb 8.292383961301958 8.623674657840652
23
root -0.4984364109074536 17.006049929223497 -7.236330598732275 2.0135630249567145 3.901177659247341 0.7521243068775689
lfemur -15.856720292533957 0.5071813949364483 -27.274108083074637
ltibia 53.77598423916194
lfoot -24.031238515986395 2.617403762451814
ltoes -3.3058196217564824
rfemur -34.353283505401265 -6.238653573697743 20.045443604437892
rtibia 120.9680978471257
rfoot 8.512454108727958 -6.771554226685158
rtoes 16.923129382112833
lowerback 17.727265032523402 1.2142806928647416 -3.5230310615098768
upperback -0.10219946943601466 0.9601905779584375 -0.30681257503075665
thorax -10.500381377855977 0.6234698215533102 1.934791388903791
lowerneck -21.527345619989124 -4.665947585131074 -1.6312092998886358
upperneck 12.722861905000595 -6.642685093968186 4.287610836858004
head 7.615224312558913 -2.8097528818334423 1.0361196541408582
lclavicle -2.695934314622218e-15 1.0822331813153471e-15
lhumerus -43.37586538297795 -22.049904559180167 100.61864592552692
lradius 106.34084470221173
lwrist 31.64117613855272
lhand -25.010343519387007 3.1140078649157132
lfingers 7.12502
lthumb 1.5015947081469385 33.07126074861004
rclavicle -2.695934314622218e-15 1.0822331813153471e-15
rhumerus -52.55968951792228 5.354945253725269 -101.23222840862535
rradius 99.69123941953052
rwrist -8.939156140517813
rhand -17.503253165745043 38.82154200967323
rfingers 7.12502
rthumb 8.74883215953731 8.828323873514677
24
root -0.46993241883394554 17.04168328505295 -6.665570720349667 2.6904183346753734 3.669463930295452 0.8995412170301407
lfemur -12.66723611429735 0.30785424700244274 -27.20357887694018
ltibia 51.910111388010165
lfoot -24.32608699392266 3.7928787796611507
ltoes -7.237193314961905
rfemur -39.38159034078808 -6.8337751662637825 20.28753626475609
rtibia 121.8293986718073
rfoot 7.119272447677415 -6.077931083353015
rtoes 15.269218319436783
lowerback 17.71170598962584 0.9032176554296155 -3.7486791568931634
upperback -0.17621583302704014 0.5183308279261911 -0.1471034407387286
thorax -10.52148172793975 0.4356878115723543 2.453372704203696
lowerneck -21.786107941150362 -4.387701289520085 -1.6245172789786921
upperneck 12.533722928616227 -6.244661305792949 4.244184007234838
head 7.576322211339825 -2.618848703785396 1.0630072892804252
lclavicle -2.421198115168728e-15 1.2814720576980918e-15
lhumerus -39.93522637483037 -22.322286087946736 100.09139451344785
lradius 108.18231084823854
lwrist 31.823567353567565
lhand -24.77891394703786 2.8373221256120904
lfingers 7.12502
lthumb 1.72509882523061 32.79909311093511
rclavicle -2.421198115168728e-15 1.2814720576980918e-15
rhumerus -54.03647164298136 5.479067592965028 -101.28155834977426
rradius 100.70143031073304
rwrist -10.219343972213345
rhand -16.910467617905425 39.01479726973755
rfingers 7.12502
rthumb 9.320935642959805 9.023797568402504
